<mxfile host="app.diagrams.net" modified="2022-07-28T19:52:57.455Z" agent="5.0 (Windows NT 10.0; Win64; x64) AppleWebKit/537.36 (KHTML, like Gecko) Chrome/103.0.5060.134 Safari/537.36" etag="wvEQBcyXeWNoVQTnIvf9" version="20.2.2" type="github">
  <diagram id="qdNYXCg7bpaaKZranV8R" name="Page-1">
    <mxGraphModel dx="1038" dy="551" grid="1" gridSize="10" guides="1" tooltips="1" connect="1" arrows="1" fold="1" page="1" pageScale="1" pageWidth="850" pageHeight="1100" math="0" shadow="0">
      <root>
        <mxCell id="0" />
        <mxCell id="1" parent="0" />
        <mxCell id="Yj3qIIUj6GRBObMRuDJy-6" style="edgeStyle=orthogonalEdgeStyle;rounded=0;orthogonalLoop=1;jettySize=auto;html=1;entryX=0.5;entryY=0;entryDx=0;entryDy=0;" edge="1" parent="1" source="Yj3qIIUj6GRBObMRuDJy-1" target="Yj3qIIUj6GRBObMRuDJy-2">
          <mxGeometry relative="1" as="geometry" />
        </mxCell>
        <mxCell id="Yj3qIIUj6GRBObMRuDJy-7" style="edgeStyle=orthogonalEdgeStyle;rounded=0;orthogonalLoop=1;jettySize=auto;html=1;entryX=0.5;entryY=0;entryDx=0;entryDy=0;" edge="1" parent="1" source="Yj3qIIUj6GRBObMRuDJy-1" target="Yj3qIIUj6GRBObMRuDJy-3">
          <mxGeometry relative="1" as="geometry" />
        </mxCell>
        <mxCell id="Yj3qIIUj6GRBObMRuDJy-8" style="edgeStyle=orthogonalEdgeStyle;rounded=0;orthogonalLoop=1;jettySize=auto;html=1;" edge="1" parent="1" source="Yj3qIIUj6GRBObMRuDJy-1" target="Yj3qIIUj6GRBObMRuDJy-4">
          <mxGeometry relative="1" as="geometry" />
        </mxCell>
        <mxCell id="Yj3qIIUj6GRBObMRuDJy-1" value="DocuWerx Website" style="rounded=0;whiteSpace=wrap;html=1;" vertex="1" parent="1">
          <mxGeometry x="320" y="60" width="140" height="50" as="geometry" />
        </mxCell>
        <mxCell id="Yj3qIIUj6GRBObMRuDJy-11" style="edgeStyle=orthogonalEdgeStyle;rounded=0;orthogonalLoop=1;jettySize=auto;html=1;entryX=0.5;entryY=0;entryDx=0;entryDy=0;" edge="1" parent="1" source="Yj3qIIUj6GRBObMRuDJy-2" target="Yj3qIIUj6GRBObMRuDJy-10">
          <mxGeometry relative="1" as="geometry" />
        </mxCell>
        <mxCell id="Yj3qIIUj6GRBObMRuDJy-2" value="Individual" style="rounded=0;whiteSpace=wrap;html=1;" vertex="1" parent="1">
          <mxGeometry x="130" y="180" width="140" height="50" as="geometry" />
        </mxCell>
        <mxCell id="Yj3qIIUj6GRBObMRuDJy-3" value="Notaries" style="rounded=0;whiteSpace=wrap;html=1;" vertex="1" parent="1">
          <mxGeometry x="320" y="180" width="140" height="50" as="geometry" />
        </mxCell>
        <mxCell id="Yj3qIIUj6GRBObMRuDJy-4" value="Business" style="rounded=0;whiteSpace=wrap;html=1;" vertex="1" parent="1">
          <mxGeometry x="510" y="180" width="140" height="50" as="geometry" />
        </mxCell>
        <mxCell id="Yj3qIIUj6GRBObMRuDJy-13" style="edgeStyle=orthogonalEdgeStyle;rounded=0;orthogonalLoop=1;jettySize=auto;html=1;entryX=0.5;entryY=0;entryDx=0;entryDy=0;" edge="1" parent="1" source="Yj3qIIUj6GRBObMRuDJy-10" target="Yj3qIIUj6GRBObMRuDJy-12">
          <mxGeometry relative="1" as="geometry" />
        </mxCell>
        <mxCell id="Yj3qIIUj6GRBObMRuDJy-18" style="edgeStyle=orthogonalEdgeStyle;rounded=0;orthogonalLoop=1;jettySize=auto;html=1;" edge="1" parent="1" source="Yj3qIIUj6GRBObMRuDJy-10" target="Yj3qIIUj6GRBObMRuDJy-17">
          <mxGeometry relative="1" as="geometry" />
        </mxCell>
        <mxCell id="Yj3qIIUj6GRBObMRuDJy-10" value="Sign In/Sign Up - eNaas" style="rounded=1;whiteSpace=wrap;html=1;" vertex="1" parent="1">
          <mxGeometry x="140" y="300" width="120" height="60" as="geometry" />
        </mxCell>
        <mxCell id="Yj3qIIUj6GRBObMRuDJy-16" value="" style="edgeStyle=orthogonalEdgeStyle;rounded=0;orthogonalLoop=1;jettySize=auto;html=1;" edge="1" parent="1" source="Yj3qIIUj6GRBObMRuDJy-12" target="Yj3qIIUj6GRBObMRuDJy-15">
          <mxGeometry relative="1" as="geometry" />
        </mxCell>
        <mxCell id="Yj3qIIUj6GRBObMRuDJy-12" value="user credentials form - get details about the User" style="rounded=0;whiteSpace=wrap;html=1;" vertex="1" parent="1">
          <mxGeometry x="30" y="410" width="120" height="60" as="geometry" />
        </mxCell>
        <mxCell id="Yj3qIIUj6GRBObMRuDJy-20" value="" style="edgeStyle=orthogonalEdgeStyle;rounded=0;orthogonalLoop=1;jettySize=auto;html=1;" edge="1" parent="1" source="Yj3qIIUj6GRBObMRuDJy-15" target="Yj3qIIUj6GRBObMRuDJy-19">
          <mxGeometry relative="1" as="geometry" />
        </mxCell>
        <mxCell id="Yj3qIIUj6GRBObMRuDJy-15" value="Firstname, last name, email, phone number" style="ellipse;whiteSpace=wrap;html=1;rounded=0;" vertex="1" parent="1">
          <mxGeometry x="30" y="520" width="120" height="60" as="geometry" />
        </mxCell>
        <mxCell id="Yj3qIIUj6GRBObMRuDJy-21" style="edgeStyle=orthogonalEdgeStyle;rounded=0;orthogonalLoop=1;jettySize=auto;html=1;entryX=0.5;entryY=0;entryDx=0;entryDy=0;" edge="1" parent="1" source="Yj3qIIUj6GRBObMRuDJy-17" target="Yj3qIIUj6GRBObMRuDJy-19">
          <mxGeometry relative="1" as="geometry" />
        </mxCell>
        <mxCell id="Yj3qIIUj6GRBObMRuDJy-17" value="Sign up with Gmail/Microsoft/Apple" style="rounded=0;whiteSpace=wrap;html=1;" vertex="1" parent="1">
          <mxGeometry x="240" y="410" width="120" height="60" as="geometry" />
        </mxCell>
        <mxCell id="Yj3qIIUj6GRBObMRuDJy-23" value="" style="edgeStyle=orthogonalEdgeStyle;rounded=0;orthogonalLoop=1;jettySize=auto;html=1;" edge="1" parent="1" source="Yj3qIIUj6GRBObMRuDJy-19" target="Yj3qIIUj6GRBObMRuDJy-22">
          <mxGeometry relative="1" as="geometry" />
        </mxCell>
        <mxCell id="Yj3qIIUj6GRBObMRuDJy-19" value="MFA - Phone/Email" style="whiteSpace=wrap;html=1;rounded=0;" vertex="1" parent="1">
          <mxGeometry x="240" y="520" width="120" height="60" as="geometry" />
        </mxCell>
        <mxCell id="Yj3qIIUj6GRBObMRuDJy-26" value="yes" style="edgeStyle=orthogonalEdgeStyle;rounded=0;orthogonalLoop=1;jettySize=auto;html=1;" edge="1" parent="1" source="Yj3qIIUj6GRBObMRuDJy-22" target="Yj3qIIUj6GRBObMRuDJy-25">
          <mxGeometry relative="1" as="geometry" />
        </mxCell>
        <mxCell id="Yj3qIIUj6GRBObMRuDJy-22" value="MFA - Pending approval" style="rhombus;whiteSpace=wrap;html=1;rounded=0;" vertex="1" parent="1">
          <mxGeometry x="430" y="510" width="100" height="80" as="geometry" />
        </mxCell>
        <mxCell id="Yj3qIIUj6GRBObMRuDJy-28" value="" style="edgeStyle=orthogonalEdgeStyle;rounded=0;orthogonalLoop=1;jettySize=auto;html=1;" edge="1" parent="1" source="Yj3qIIUj6GRBObMRuDJy-25" target="Yj3qIIUj6GRBObMRuDJy-27">
          <mxGeometry relative="1" as="geometry" />
        </mxCell>
        <mxCell id="Yj3qIIUj6GRBObMRuDJy-25" value="Knowledge Base Auth(KBA)/Credential Analysis(CA)" style="whiteSpace=wrap;html=1;rounded=0;" vertex="1" parent="1">
          <mxGeometry x="420" y="650" width="120" height="60" as="geometry" />
        </mxCell>
        <mxCell id="Yj3qIIUj6GRBObMRuDJy-30" value="" style="edgeStyle=orthogonalEdgeStyle;rounded=0;orthogonalLoop=1;jettySize=auto;html=1;" edge="1" parent="1" source="Yj3qIIUj6GRBObMRuDJy-27" target="Yj3qIIUj6GRBObMRuDJy-29">
          <mxGeometry relative="1" as="geometry" />
        </mxCell>
        <mxCell id="Yj3qIIUj6GRBObMRuDJy-27" value="Get documents from the user to verify against ID.me - docs like drivers license, passport" style="whiteSpace=wrap;html=1;rounded=0;" vertex="1" parent="1">
          <mxGeometry x="630" y="570" width="140" height="80" as="geometry" />
        </mxCell>
        <mxCell id="Yj3qIIUj6GRBObMRuDJy-32" value="" style="edgeStyle=orthogonalEdgeStyle;rounded=0;orthogonalLoop=1;jettySize=auto;html=1;" edge="1" parent="1" source="Yj3qIIUj6GRBObMRuDJy-29" target="Yj3qIIUj6GRBObMRuDJy-31">
          <mxGeometry relative="1" as="geometry" />
        </mxCell>
        <mxCell id="Yj3qIIUj6GRBObMRuDJy-29" value="Verify the user documents against ID.me" style="ellipse;whiteSpace=wrap;html=1;rounded=0;" vertex="1" parent="1">
          <mxGeometry x="640" y="700" width="120" height="60" as="geometry" />
        </mxCell>
        <mxCell id="Yj3qIIUj6GRBObMRuDJy-34" value="yes" style="edgeStyle=orthogonalEdgeStyle;rounded=0;orthogonalLoop=1;jettySize=auto;html=1;" edge="1" parent="1" source="Yj3qIIUj6GRBObMRuDJy-31" target="Yj3qIIUj6GRBObMRuDJy-33">
          <mxGeometry relative="1" as="geometry" />
        </mxCell>
        <mxCell id="Yj3qIIUj6GRBObMRuDJy-31" value="on verification" style="rhombus;whiteSpace=wrap;html=1;rounded=0;" vertex="1" parent="1">
          <mxGeometry x="645" y="800" width="110" height="80" as="geometry" />
        </mxCell>
        <mxCell id="Yj3qIIUj6GRBObMRuDJy-36" value="" style="edgeStyle=orthogonalEdgeStyle;rounded=0;orthogonalLoop=1;jettySize=auto;html=1;" edge="1" parent="1" source="Yj3qIIUj6GRBObMRuDJy-33" target="Yj3qIIUj6GRBObMRuDJy-35">
          <mxGeometry relative="1" as="geometry" />
        </mxCell>
        <mxCell id="Yj3qIIUj6GRBObMRuDJy-33" value="eNaaS Booking" style="whiteSpace=wrap;html=1;rounded=0;" vertex="1" parent="1">
          <mxGeometry x="450" y="810" width="120" height="60" as="geometry" />
        </mxCell>
        <mxCell id="Yj3qIIUj6GRBObMRuDJy-38" value="" style="edgeStyle=orthogonalEdgeStyle;rounded=0;orthogonalLoop=1;jettySize=auto;html=1;" edge="1" parent="1" source="Yj3qIIUj6GRBObMRuDJy-35" target="Yj3qIIUj6GRBObMRuDJy-37">
          <mxGeometry relative="1" as="geometry" />
        </mxCell>
        <mxCell id="Yj3qIIUj6GRBObMRuDJy-35" value="General Notarizations" style="whiteSpace=wrap;html=1;rounded=0;" vertex="1" parent="1">
          <mxGeometry x="450" y="900" width="120" height="60" as="geometry" />
        </mxCell>
        <mxCell id="Yj3qIIUj6GRBObMRuDJy-40" value="" style="edgeStyle=orthogonalEdgeStyle;rounded=0;orthogonalLoop=1;jettySize=auto;html=1;" edge="1" parent="1" source="Yj3qIIUj6GRBObMRuDJy-37" target="Yj3qIIUj6GRBObMRuDJy-39">
          <mxGeometry relative="1" as="geometry" />
        </mxCell>
        <mxCell id="Yj3qIIUj6GRBObMRuDJy-42" value="" style="edgeStyle=orthogonalEdgeStyle;rounded=0;orthogonalLoop=1;jettySize=auto;html=1;" edge="1" parent="1" source="Yj3qIIUj6GRBObMRuDJy-37" target="Yj3qIIUj6GRBObMRuDJy-41">
          <mxGeometry relative="1" as="geometry" />
        </mxCell>
        <mxCell id="Yj3qIIUj6GRBObMRuDJy-37" value="Upload document to be notarized" style="whiteSpace=wrap;html=1;rounded=0;" vertex="1" parent="1">
          <mxGeometry x="450" y="990" width="120" height="60" as="geometry" />
        </mxCell>
        <mxCell id="Yj3qIIUj6GRBObMRuDJy-44" value="" style="edgeStyle=orthogonalEdgeStyle;rounded=0;orthogonalLoop=1;jettySize=auto;html=1;" edge="1" parent="1" source="Yj3qIIUj6GRBObMRuDJy-39" target="Yj3qIIUj6GRBObMRuDJy-43">
          <mxGeometry relative="1" as="geometry" />
        </mxCell>
        <mxCell id="Yj3qIIUj6GRBObMRuDJy-46" style="edgeStyle=orthogonalEdgeStyle;rounded=0;orthogonalLoop=1;jettySize=auto;html=1;entryX=0;entryY=0.5;entryDx=0;entryDy=0;" edge="1" parent="1" source="Yj3qIIUj6GRBObMRuDJy-39" target="Yj3qIIUj6GRBObMRuDJy-45">
          <mxGeometry relative="1" as="geometry" />
        </mxCell>
        <mxCell id="Yj3qIIUj6GRBObMRuDJy-39" value="Display options" style="whiteSpace=wrap;html=1;rounded=0;" vertex="1" parent="1">
          <mxGeometry x="450" y="1080" width="120" height="60" as="geometry" />
        </mxCell>
        <mxCell id="Yj3qIIUj6GRBObMRuDJy-41" value="Provide options to upload multiple documents - Max 5" style="ellipse;whiteSpace=wrap;html=1;rounded=0;" vertex="1" parent="1">
          <mxGeometry x="635" y="980" width="120" height="60" as="geometry" />
        </mxCell>
        <mxCell id="Yj3qIIUj6GRBObMRuDJy-48" value="" style="edgeStyle=orthogonalEdgeStyle;rounded=0;orthogonalLoop=1;jettySize=auto;html=1;" edge="1" parent="1" source="Yj3qIIUj6GRBObMRuDJy-43" target="Yj3qIIUj6GRBObMRuDJy-47">
          <mxGeometry relative="1" as="geometry" />
        </mxCell>
        <mxCell id="Yj3qIIUj6GRBObMRuDJy-43" value="Same day notarization" style="ellipse;whiteSpace=wrap;html=1;rounded=0;" vertex="1" parent="1">
          <mxGeometry x="640" y="1050" width="120" height="60" as="geometry" />
        </mxCell>
        <mxCell id="Yj3qIIUj6GRBObMRuDJy-50" style="edgeStyle=orthogonalEdgeStyle;rounded=0;orthogonalLoop=1;jettySize=auto;html=1;entryX=0;entryY=0.5;entryDx=0;entryDy=0;" edge="1" parent="1" source="Yj3qIIUj6GRBObMRuDJy-45" target="Yj3qIIUj6GRBObMRuDJy-49">
          <mxGeometry relative="1" as="geometry" />
        </mxCell>
        <mxCell id="Yj3qIIUj6GRBObMRuDJy-45" value="Max is 2 weeks" style="ellipse;whiteSpace=wrap;html=1;rounded=0;" vertex="1" parent="1">
          <mxGeometry x="640" y="1120" width="120" height="60" as="geometry" />
        </mxCell>
        <mxCell id="Yj3qIIUj6GRBObMRuDJy-47" value="lets say $50" style="ellipse;whiteSpace=wrap;html=1;rounded=0;" vertex="1" parent="1">
          <mxGeometry x="810" y="1050" width="120" height="60" as="geometry" />
        </mxCell>
        <mxCell id="Yj3qIIUj6GRBObMRuDJy-49" value="lets say $25" style="ellipse;whiteSpace=wrap;html=1;rounded=0;" vertex="1" parent="1">
          <mxGeometry x="810" y="1120" width="120" height="60" as="geometry" />
        </mxCell>
      </root>
    </mxGraphModel>
  </diagram>
</mxfile>
